<?xml version="1.0" encoding="UTF-8"?>
<svg version="1.1" xmlns="http://www.w3.org/2000/svg" width="500" height="500">
<path d="M0 0 C7.35460993 0.60283688 7.35460993 0.60283688 10.03125 2.25 C13.8267985 9.10647471 6.77794686 24.79873187 4.75927734 32.19824219 C3.94745477 35.19389357 3.15408646 38.19404709 2.36328125 41.1953125 C-0.63656194 52.53431024 -3.80044091 63.79044116 -7.29101562 74.98803711 C-10.28151651 84.69288451 -12.85981946 94.50278706 -15.42358398 104.32714844 C-15.74528564 105.55594727 -16.0669873 106.78474609 -16.3984375 108.05078125 C-16.68380371 109.15075439 -16.96916992 110.25072754 -17.26318359 111.3840332 C-18 114 -18 114 -19 116 C-13.96842068 114.50750735 -8.93710198 113.01414018 -3.90600586 111.52001953 C-2.2003452 111.01360385 -0.4946179 110.50741254 1.21118164 110.00146484 C6.07719972 108.55809384 10.94193595 107.11055075 15.80462646 105.65600586 C17.20272684 105.23823548 18.60116922 104.82160672 20.00006104 104.40649414 C27.34967079 102.2343216 27.34967079 102.2343216 34.5 99.5 C40.95124047 96.73518266 47.76529129 94.96461044 54.484375 92.9609375 C60.16482758 91.24633085 65.58871614 89.42551234 71 87 C84.05296911 82.35376457 84.05296911 82.35376457 91 83 C93.14194228 86.83764658 94.57785261 89.57610481 94 94 C92.49389648 95.43457031 92.49389648 95.43457031 90.37109375 96.578125 C89.58992188 97.01278076 88.80875 97.44743652 88.00390625 97.89526367 C86.73353516 98.56585815 86.73353516 98.56585815 85.4375 99.25 C83.69583121 100.20821292 81.95495583 101.16786924 80.21484375 102.12890625 C78.90169189 102.84457764 78.90169189 102.84457764 77.56201172 103.57470703 C73.16390021 106.02145517 68.89659606 108.68323685 64.63452148 111.35839844 C60.32578935 114 60.32578935 114 57 114 C57 114.66 57 115.32 57 116 C56.27296875 116.35191406 55.5459375 116.70382813 54.796875 117.06640625 C48.16742058 120.32163835 41.79191362 123.81691356 35.49609375 127.6796875 C33 129 33 129 30 129 C30 129.66 30 130.32 30 131 C19 137 8 143 -3 149 C0.79390546 151.90939186 4.75748728 154.33177095 8.875 156.75 C9.62225342 157.18957031 10.36950684 157.62914062 11.1394043 158.08203125 C17.94646676 162.04397406 24.90528355 165.58366595 32 169 C33.33464137 169.66404415 34.66860651 170.32946768 36 171 C36 171.66 36 172.32 36 173 C36.5671875 173.11682129 37.134375 173.23364258 37.71875 173.35400391 C40.22499941 174.06371452 42.22076993 175.07618805 44.5 176.3359375 C45.37744873 176.81780518 46.25489746 177.29967285 47.15893555 177.79614258 C48.09648682 178.31716553 49.03403809 178.83818848 50 179.375 C50.97171143 179.91084717 51.94342285 180.44669434 52.94458008 180.9987793 C54.96605514 182.11362959 56.98663411 183.23010615 59.00634766 184.34814453 C61.835303 185.9091225 64.67154836 187.45563625 67.51171875 188.99609375 C72.3609146 191.62922288 77.19113006 194.29390568 82 197 C82.63164062 197.35465332 83.26328125 197.70930664 83.9140625 198.07470703 C85.51725754 198.98728806 87.10331795 199.92979859 88.6875 200.875 C89.51636719 201.36742187 90.34523438 201.85984375 91.19921875 202.3671875 C93.54033389 204.48993398 93.82526589 205.8790547 94 209 C92.5625 212.3125 92.5625 212.3125 91 215 C86.0357238 215.31026726 82.83667731 214.64875673 78.14111328 212.80883789 C74.79721484 211.54562973 71.37485573 210.59763838 67.9375 209.625 C58.64797055 206.94348634 49.50753575 203.89303055 40.36328125 200.75 C33.19380076 198.31191949 26.02376055 196.13981018 18.71606445 194.16723633 C6.37951902 190.79134413 -5.7999011 186.83399451 -18 183 C-18 186.31366257 -17.29930908 188.7045722 -16.34765625 191.87890625 C-15.98760498 193.09392822 -15.62755371 194.3089502 -15.2565918 195.56079102 C-15.06221527 196.21169708 -14.86783875 196.86260315 -14.66757202 197.53323364 C-10.54168249 211.37047702 -6.73590182 225.27803361 -3.09594727 239.25024414 C-1.12609989 246.8035536 0.92195456 254.32762397 3.0871582 261.82788086 C4.54921726 266.90852629 5.94082636 272.00841412 7.33007812 277.109375 C8.40624421 281.14912322 8.40624421 281.14912322 10 285 C10.13415472 287.6723621 10.04318541 290.32250488 10 293 C9.34 293 8.68 293 8 293 C8 293.66 8 294.32 8 295 C5.96537337 296.23530903 4.52637074 297.00109433 2.12109375 296.99609375 C-1.29694724 295.39093638 -2.50293846 292.21604951 -4.1875 289 C-4.57478271 288.28593994 -4.96206543 287.57187988 -5.36108398 286.83618164 C-6.58812573 284.56468037 -7.79532814 282.28343169 -9 280 C-9.76772071 278.56092655 -10.53593971 277.1221188 -11.3046875 275.68359375 C-12.8151884 272.84851479 -14.31557668 270.00838544 -15.80859375 267.1640625 C-17.56010746 263.82821448 -19.33469089 260.50548008 -21.1184082 257.18676758 C-24.56244085 250.77400052 -27.86165223 244.30421095 -31.09375 237.78125 C-33.28409885 233.40055231 -35.58183384 229.07749709 -37.875 224.75 C-42.73506854 215.57433255 -47.39669269 206.30668651 -52 197 C-56.7715141 205.91660037 -61.51256559 214.8485972 -66.21191406 223.8034668 C-68.24433762 227.67432399 -70.28493166 231.53999995 -72.35546875 235.390625 C-76.099929 242.36839188 -79.68970909 249.3673574 -83 256.5625 C-86.2649341 263.64941857 -89.93304658 270.42354954 -93.82421875 277.18359375 C-96.51476919 281.86079233 -99.00495382 286.63755602 -101.4921875 291.42578125 C-102.8294283 293.70879081 -103.94443766 295.3521525 -106 297 C-109.64229052 296.74880755 -112.81175788 294.66658111 -116 293 C-115.3968362 289.11966998 -114.63711538 285.36179822 -113.6171875 281.5703125 C-113.20243164 280.02500854 -113.20243164 280.02500854 -112.77929688 278.44848633 C-112.48087891 277.35173584 -112.18246094 276.25498535 -111.875 275.125 C-111.56369141 273.97604248 -111.25238281 272.82708496 -110.93164062 271.64331055 C-106.49089774 255.35127923 -101.68160447 239.17780467 -96.70849609 223.04150391 C-93.80290569 213.52116299 -91.17759297 203.92462824 -88.57641602 194.31762695 C-88.25471436 193.13386475 -87.9330127 191.95010254 -87.6015625 190.73046875 C-87.31619629 189.67239014 -87.03083008 188.61431152 -86.73681641 187.52416992 C-86 185 -86 185 -85 183 C-104.55094049 188.4283236 -104.55094049 188.4283236 -123.875 194.59765625 C-140.45293897 200.28878343 -157.22697077 205.45424111 -174.015625 210.484375 C-177.08519999 211.40687407 -180.13537556 212.36457965 -183.171875 213.390625 C-184.33203125 213.77734375 -185.4921875 214.1640625 -186.6875 214.5625 C-187.64011719 214.89378906 -188.59273437 215.22507812 -189.57421875 215.56640625 C-192.49198342 216.08793906 -193.58877296 215.66142713 -196 214 C-197.4605264 211.88223673 -197.98710483 210.05029118 -198.625 207.5625 C-198 205 -198 205 -196.48120117 203.82958984 C-195.82095947 203.43980957 -195.16071777 203.0500293 -194.48046875 202.6484375 C-193.38992187 201.99645386 -193.38992187 201.99645386 -192.27734375 201.33129883 C-191.52582031 200.89197021 -190.77429688 200.4526416 -190 200 C-189.31550781 199.58967529 -188.63101563 199.17935059 -187.92578125 198.7565918 C-163.29115109 184 -163.29115109 184 -159 184 C-159 183.34 -159 182.68 -159 182 C-158.29617187 181.6596875 -157.59234375 181.319375 -156.8671875 180.96875 C-146.25838823 175.76129762 -136.09073762 169.89881507 -125.984375 163.77734375 C-120.85833832 160.72453395 -115.68229516 157.75730345 -110.51098633 154.78198242 C-109.7145874 154.32283447 -108.91818848 153.86368652 -108.09765625 153.390625 C-107.38101807 152.97844727 -106.66437988 152.56626953 -105.92602539 152.14160156 C-104.25068998 151.14858998 -102.62043172 150.08028781 -101 149 C-117.04390695 139.3323043 -117.04390695 139.3323043 -133.640625 130.671875 C-143.29370311 125.86778497 -152.59178532 120.29552692 -161.86328125 114.80078125 C-164.59968416 113.22982018 -167.35377965 111.70746353 -170.125 110.19921875 C-172.08338984 109.13291627 -174.04172137 108.0665067 -176 107 C-176.97283936 106.47059814 -177.94567871 105.94119629 -178.94799805 105.39575195 C-181.87516291 103.78759865 -184.78221952 102.14730382 -187.6875 100.5 C-189.18700195 99.68595703 -189.18700195 99.68595703 -190.71679688 98.85546875 C-192.1312207 98.04529297 -192.1312207 98.04529297 -193.57421875 97.21875 C-194.42588623 96.74373047 -195.27755371 96.26871094 -196.1550293 95.77929688 C-198 94 -198 94 -198.34692383 90.97851562 C-197.93911406 87.47726359 -197.33968448 85.65164241 -195 83 C-190.6326872 82.20594313 -187.86143845 83.47997544 -183.90576172 85.22412109 C-180.83632695 86.47375775 -177.64150975 87.24411732 -174.4375 88.0625 C-164.35820408 90.74172359 -154.50703713 94.08899014 -144.63452148 97.43383789 C-138.51108859 99.50572433 -132.38919136 101.50556645 -126.18554688 103.32250977 C-123.55198797 104.13887772 -121.00509798 105.15158854 -118.43359375 106.14306641 C-112.38491798 108.27296728 -106.1635504 109.92318894 -100 111.6875 C-98.5428846 112.10712979 -97.08585258 112.52704922 -95.62890625 112.94726562 C-92.08689319 113.968187 -88.54376578 114.98517699 -85 116 C-85.24959473 115.20730713 -85.49918945 114.41461426 -85.75634766 113.59790039 C-88.14956374 105.92093843 -90.32957984 98.21342829 -92.375 90.4375 C-95.73880368 77.80374244 -99.33576725 65.25396961 -103.34375 52.80859375 C-105.72804272 45.38620248 -107.78499904 37.99794278 -109.46777344 30.38330078 C-110.79385125 24.51357598 -112.55754108 18.83530292 -114.6015625 13.17578125 C-115.55272207 10.38030007 -116.16050423 8.54534959 -115.3125 5.6640625 C-113.2789814 3.08585142 -111.03170413 2.15204757 -108 1 C-105.98706055 1.14697266 -105.98706055 1.14697266 -104 2 C-102.49536133 3.92333984 -102.49536133 3.92333984 -101.08203125 6.4609375 C-100.55440186 7.39808594 -100.02677246 8.33523437 -99.4831543 9.30078125 C-98.93183838 10.31527344 -98.38052246 11.32976562 -97.8125 12.375 C-96.94975464 13.93154297 -96.94975464 13.93154297 -96.06958008 15.51953125 C-91.73915017 23.42007274 -87.81597076 31.46540212 -84.046875 39.64453125 C-81.85480756 44.37494623 -79.42199982 48.95380823 -76.93481445 53.53393555 C-74.65143723 57.7477177 -72.48794823 62.01060619 -70.375 66.3125 C-64.59187055 78.04925033 -58.24297419 89.50366304 -52 101 C-46.31360744 90.40119609 -40.82456477 79.75639504 -35.7890625 68.83203125 C-33.94694397 64.84284191 -31.9806652 60.9220661 -30 57 C-29.34 57 -28.68 57 -28 57 C-27.86271484 55.98873047 -27.86271484 55.98873047 -27.72265625 54.95703125 C-26.81548645 51.24499052 -25.18663238 48.05656514 -23.4375 44.6875 C-22.70282509 43.24885103 -21.96845829 41.81004469 -21.234375 40.37109375 C-20.85990234 39.64132324 -20.48542969 38.91155273 -20.09960938 38.15966797 C-19.07488767 36.14708177 -18.07135556 34.12593218 -17.078125 32.09765625 C-11.73470662 21.20471819 -5.9115221 10.59365686 0 0 Z " fill="#D70638" transform="translate(302,101)"/>
<path d="M0 0 C3.46077801 1.59728216 4.28983058 4.5124722 5.87890625 7.8671875 C5.54890625 8.5271875 5.21890625 9.1871875 4.87890625 9.8671875 C4.21890625 9.5371875 3.55890625 9.2071875 2.87890625 8.8671875 C2.87890625 8.2071875 2.87890625 7.5471875 2.87890625 6.8671875 C0.89890625 7.5271875 -1.08109375 8.1871875 -3.12109375 8.8671875 C-3.12109375 7.8771875 -3.12109375 6.8871875 -3.12109375 5.8671875 C-4.11109375 5.8671875 -5.10109375 5.8671875 -6.12109375 5.8671875 C-6.45109375 7.8471875 -6.78109375 9.8271875 -7.12109375 11.8671875 C-6.46109375 11.8671875 -5.80109375 11.8671875 -5.12109375 11.8671875 C-3.76117637 18.19146349 -2.74429496 24.42744169 -2.12109375 30.8671875 C-4.89137108 28.09691017 -5.26108265 24.94426651 -6.12109375 21.2421875 C-6.36859375 20.21158203 -6.36859375 20.21158203 -6.62109375 19.16015625 C-6.95435955 17.77241662 -7.28509084 16.38406587 -7.61328125 14.99511719 C-8.42065403 11.6119147 -9.27216176 8.24017621 -10.12109375 4.8671875 C-8.88165099 3.99777256 -7.62902316 3.14713293 -6.37109375 2.3046875 C-5.675 1.82902344 -4.97890625 1.35335937 -4.26171875 0.86328125 C-2.12109375 -0.1328125 -2.12109375 -0.1328125 0 0 Z " fill="#AF0B33" transform="translate(196.12109375,102.1328125)"/>
<path d="M0 0 C0.66 0 1.32 0 2 0 C0.28747108 6.50760989 -3.21690682 13.21690682 -8 18 C-11.66226912 17.60761402 -14.77780124 15.68433117 -18 14 C-17.40049704 10.31733897 -16.75241109 6.65456815 -16 3 C-15.67 3 -15.34 3 -15 3 C-14.67 6.63 -14.34 10.26 -14 14 C-11.03 14.495 -11.03 14.495 -8 15 C-8.33 14.01 -8.66 13.02 -9 12 C-8.34 11.67 -7.68 11.34 -7 11 C-6.34 11.33 -5.68 11.66 -5 12 C-5 10.68 -5 9.36 -5 8 C-4.34 8 -3.68 8 -3 8 C-3 6.68 -3 5.36 -3 4 C-2.34 4 -1.68 4 -1 4 C-0.67 2.68 -0.34 1.36 0 0 Z " fill="#950D2D" transform="translate(204,380)"/>
<path d="M0 0 C0.66 0 1.32 0 2 0 C1.29241878 4.76720617 0.18378876 9.37527739 -1.06640625 14.0234375 C-1.36393044 15.14270126 -1.36393044 15.14270126 -1.66746521 16.28457642 C-2.29654769 18.6487517 -2.92946157 21.01188126 -3.5625 23.375 C-3.99179071 24.98560934 -4.42082978 26.59628577 -4.84960938 28.20703125 C-5.89682996 32.13880303 -6.94748605 36.06964208 -8 40 C-8.66 39.34 -9.32 38.68 -10 38 C-9.6875 35.8125 -9.6875 35.8125 -9 33 C-8.855625 31.865625 -8.71125 30.73125 -8.5625 29.5625 C-8.02901681 26.18377313 -7.1726945 23.20536496 -6 20 C-5.34 20 -4.68 20 -4 20 C-3.855625 18.824375 -3.71125 17.64875 -3.5625 16.4375 C-3.4696875 15.70789063 -3.376875 14.97828125 -3.28125 14.2265625 C-3.03238218 12.2563589 -2.79646946 10.28452833 -2.5625 8.3125 C-2.04570312 5.26914062 -1.2723154 2.79909388 0 0 Z " fill="#900C2D" transform="translate(293,172)"/>
<path d="M0 0 C0.66 0.99 1.32 1.98 2 3 C1.34 3 0.68 3 0 3 C0.061875 4.11375 0.061875 4.11375 0.125 5.25 C-0.00398134 8.08758952 -0.57051222 9.58773938 -2 12 C-2.66 12 -3.32 12 -4 12 C-4.144375 12.78375 -4.28875 13.5675 -4.4375 14.375 C-5 17 -5 17 -6 19 C-6.66 19 -7.32 19 -8 19 C-7.67 21.31 -7.34 23.62 -7 26 C-7.99 26 -8.98 26 -10 26 C-10.66 27.32 -11.32 28.64 -12 30 C-12.66 30 -13.32 30 -14 30 C-12.47690748 24.78855369 -10.15364192 20.29688047 -7.5625 15.5625 C-4.77986948 10.4557148 -2.20617853 5.38421063 0 0 Z " fill="#970C2F" transform="translate(293,117)"/>
<path d="M0 0 C1.48976459 0.70726198 2.96662996 1.44173906 4.4375 2.1875 C5.26121094 2.59355469 6.08492188 2.99960937 6.93359375 3.41796875 C9 5 9 5 9.875 7.46875 C10.04671923 10.94606432 8.72140603 13.03918162 7 16 C2.17639811 16.19294408 -1.49646738 15.75747614 -6 14 C-6 13.67 -6 13.34 -6 13 C-4.1746875 13.0309375 -4.1746875 13.0309375 -2.3125 13.0625 C0.91977322 13.06824116 3.84934741 12.78766315 7 12 C7.33 10.02 7.66 8.04 8 6 C6.35 5.67 4.7 5.34 3 5 C3 4.34 3 3.68 3 3 C2.01 2.67 1.02 2.34 0 2 C0 1.34 0 0.68 0 0 Z " fill="#990D2E" transform="translate(386,300)"/>
<path d="M0 0 C3.3 0.33 6.6 0.66 10 1 C10 1.66 10 2.32 10 3 C11.2684375 2.9071875 11.2684375 2.9071875 12.5625 2.8125 C16.61054248 3.03330232 19.29078944 4.40120234 23 6 C25.67609978 6.50794161 28.28076337 6.76147047 31 7 C31 7.66 31 8.32 31 9 C32.485 9.495 32.485 9.495 34 10 C30.73676748 11.63161626 27.63515781 9.90214907 24.3125 8.875 C23.56170166 8.64852783 22.81090332 8.42205566 22.03735352 8.1887207 C14.64338312 5.93770715 7.31264405 3.50141391 0 1 C0 0.67 0 0.34 0 0 Z " fill="#940C2F" transform="translate(346,302)"/>
<path d="M0 0 C0.66 0 1.32 0 2 0 C2 0.99 2 1.98 2 3 C2.66 3 3.32 3 4 3 C4 3.99 4 4.98 4 6 C4.66 6 5.32 6 6 6 C6.48198463 7.24891614 6.96045677 8.49918808 7.4375 9.75 C7.70433594 10.44609375 7.97117187 11.1421875 8.24609375 11.859375 C8.96146693 13.89059003 9.51365652 15.9035291 10 18 C10.66 18 11.32 18 12 18 C12.33 20.31 12.66 22.62 13 25 C9.3443086 20.79092413 6.82048138 16.28152147 4.25 11.375 C3.83878906 10.611875 3.42757813 9.84875 3.00390625 9.0625 C2.61589844 8.32773437 2.22789062 7.59296875 1.828125 6.8359375 C1.3007373 5.83892822 1.3007373 5.83892822 0.76269531 4.82177734 C0 3 0 3 0 0 Z " fill="#A10E32" transform="translate(287,367)"/>
<path d="M0 0 C1.32 0.33 2.64 0.66 4 1 C-1.94 4.3 -7.88 7.6 -14 11 C-14.33 10.01 -14.66 9.02 -15 8 C-13.68 8 -12.36 8 -11 8 C-10.8453125 7.1028125 -10.8453125 7.1028125 -10.6875 6.1875 C-9.85530342 3.53960178 -9.36066896 2.49509034 -7 1 C-3.3125 1.3125 -3.3125 1.3125 0 2 C0 1.34 0 0.68 0 0 Z " fill="#BA0835" transform="translate(324,233)"/>
<path d="M0 0 C0.66 0.33 1.32 0.66 2 1 C0.75363686 9.95413521 -1.36712854 18.36009173 -4 27 C-4.66 26.67 -5.32 26.34 -6 26 C-6 25.34 -6 24.68 -6 24 C-5.34 24 -4.68 24 -4 24 C-4 20.7 -4 17.4 -4 14 C-3.34 14 -2.68 14 -2 14 C-2.020625 13.030625 -2.04125 12.06125 -2.0625 11.0625 C-2 8 -2 8 -1 7 C-0.63239269 4.67182036 -0.29758419 2.3381615 0 0 Z " fill="#A30E33" transform="translate(311,104)"/>
<path d="M0 0 C3.50688737 3.50688737 3.97321259 8.666422 5.1875 13.375 C5.47302734 14.42945313 5.75855469 15.48390625 6.05273438 16.5703125 C6.31763672 17.58609375 6.58253906 18.601875 6.85546875 19.6484375 C7.09934326 20.57833496 7.34321777 21.50823242 7.59448242 22.46630859 C8.00582833 25.03641568 7.83640011 26.56261361 7 29 C2.1714883 20.11176199 0.86054078 9.982273 0 0 Z " fill="#960E2F" transform="translate(293,323)"/>
<path d="M0 0 C0.66 0 1.32 0 2 0 C1.22805781 5.41246825 -0.14570865 10.60469492 -1.5625 15.875 C-1.79646484 16.75414062 -2.03042969 17.63328125 -2.27148438 18.5390625 C-2.84518855 20.69338021 -3.42142164 22.8469872 -4 25 C-4.33 25 -4.66 25 -5 25 C-4.67 20.38 -4.34 15.76 -4 11 C-3.34 11 -2.68 11 -2 11 C-2 8.69 -2 6.38 -2 4 C-1.34 4 -0.68 4 0 4 C0 2.68 0 1.36 0 0 Z " fill="#810B25" transform="translate(301,144)"/>
<path d="M0 0 C-3.62998373 1.98082869 -7.46375314 3.26516713 -11.375 4.5625 C-12.34566406 4.89411133 -12.34566406 4.89411133 -13.3359375 5.23242188 C-17.20332071 6.52284914 -20.96200848 7.44368228 -25 8 C-25 7.34 -25 6.68 -25 6 C-23.35 6 -21.7 6 -20 6 C-20 5.34 -20 4.68 -20 4 C-18.35 4 -16.7 4 -15 4 C-15 3.34 -15 2.68 -15 2 C-9.77487721 0.53329887 -5.4185766 -0.22577402 0 0 Z " fill="#A80E31" transform="translate(146,305)"/>
<path d="M0 0 C0.99 0 1.98 0 3 0 C3 1.32 3 2.64 3 4 C3.66 4.33 4.32 4.66 5 5 C4.02149805 6.02104551 3.02019573 7.0206121 2 8 C1.67 8 1.34 8 1 8 C0.89042969 8.75925781 0.78085938 9.51851563 0.66796875 10.30078125 C0.50941406 11.29464844 0.35085937 12.28851563 0.1875 13.3125 C0.03667969 14.29863281 -0.11414063 15.28476562 -0.26953125 16.30078125 C-1.03436705 19.12699269 -1.75258762 20.1959128 -4 22 C-2.76583013 15.17576662 -1.1084005 8.60632156 1 2 C0.34 1.67 -0.32 1.34 -1 1 C-0.67 0.67 -0.34 0.34 0 0 Z " fill="#860A2A" transform="translate(216,282)"/>
<path d="M0 0 C2.625 0.375 2.625 0.375 5 1 C0.32290621 5.1932565 -5.22510562 8.54164713 -11 11 C-11.99 10.67 -12.98 10.34 -14 10 C-13.67 9.34 -13.34 8.68 -13 8 C-12.01 8 -11.02 8 -10 8 C-10 7.34 -10 6.68 -10 6 C-8.68 6 -7.36 6 -6 6 C-6 5.34 -6 4.68 -6 4 C-4.68 4 -3.36 4 -2 4 C-2 3.34 -2 2.68 -2 2 C-1.34 1.34 -0.68 0.68 0 0 Z " fill="#A00D32" transform="translate(346,219)"/>
<path d="M0 0 C0 0.66 0 1.32 0 2 C-2.64 2.33 -5.28 2.66 -8 3 C-8 3.66 -8 4.32 -8 5 C-14.435 5.495 -14.435 5.495 -21 6 C-20 4 -20 4 -17.3046875 2.9296875 C-5.97143235 -0.55548208 -5.97143235 -0.55548208 0 0 Z " fill="#9A0C2F" transform="translate(393,184)"/>
<path d="M0 0 C0.66 0 1.32 0 2 0 C0.6510689 4.51451314 -1.16618294 8.32277281 -3.5625 12.375 C-4.18253906 13.43460937 -4.80257812 14.49421875 -5.44140625 15.5859375 C-5.95574219 16.38257813 -6.47007812 17.17921875 -7 18 C-7.33 18 -7.66 18 -8 18 C-8.08762121 14.84563636 -8.16513114 11.96578836 -7 9 C-6.01 8.67 -5.02 8.34 -4 8 C-4 7.34 -4 6.68 -4 6 C-3.34 6 -2.68 6 -2 6 C-1.855625 5.38125 -1.71125 4.7625 -1.5625 4.125 C-1 2 -1 2 0 0 Z " fill="#930E2E" transform="translate(217,356)"/>
<path d="M0 0 C1.32 0 2.64 0 4 0 C4 0.66 4 1.32 4 2 C6.31 2 8.62 2 11 2 C11 2.66 11 3.32 11 4 C11.63808594 4.12117188 12.27617187 4.24234375 12.93359375 4.3671875 C14.17302734 4.61855469 14.17302734 4.61855469 15.4375 4.875 C16.26121094 5.03742188 17.08492188 5.19984375 17.93359375 5.3671875 C18.61550781 5.57601563 19.29742187 5.78484375 20 6 C20.33 6.66 20.66 7.32 21 8 C13.39086902 6.7205886 6.26774103 4.57243067 -1 2 C-0.67 1.34 -0.34 0.68 0 0 Z " fill="#910D2B" transform="translate(282,281)"/>
<path d="M0 0 C0 2 0 2 -1.6875 3.69140625 C-6.88460346 7.89649503 -10.27350735 9.87770013 -17 10 C-15.55475933 7.10951866 -13.461031 6.48873019 -10.625 5 C-1.15 0 -1.15 0 0 0 Z " fill="#960B2C" transform="translate(172,268)"/>
<path d="M0 0 C2.17677053 2.17677053 2.40476159 2.97086974 3.03515625 5.87890625 C3.20466797 6.63494141 3.37417969 7.39097656 3.54882812 8.16992188 C3.71833984 8.95947266 3.88785156 9.74902344 4.0625 10.5625 C4.76884587 15.68965219 4.76884587 15.68965219 7 20 C7.04063832 21.66617115 7.042721 23.33388095 7 25 C4.30992402 22.30992402 3.97270764 19.63144185 3 16 C2.67 15.34 2.34 14.68 2 14 C1.835 13.154375 1.67 12.30875 1.5 11.4375 C1.24588052 9.06234893 1.24588052 9.06234893 0 8 C-0.14115161 5.32941149 -0.04247107 2.67567762 0 0 Z " fill="#960D2D" transform="translate(301,352)"/>
<path d="M0 0 C0.66 0.33 1.32 0.66 2 1 C1.67 1.66 1.34 2.32 1 3 C0.01 3 -0.98 3 -2 3 C-2.66 4.32 -3.32 5.64 -4 7 C-5.65 7 -7.3 7 -9 7 C-9 7.66 -9 8.32 -9 9 C-9.99 9 -10.98 9 -12 9 C-12.33 10.32 -12.66 11.64 -13 13 C-13.5 10.8125 -13.5 10.8125 -13 8 C-10.54689872 5.95276463 -7.80131077 4.51759322 -5 3 C-3.576875 2.071875 -3.576875 2.071875 -2.125 1.125 C-1.42375 0.75375 -0.7225 0.3825 0 0 Z " fill="#9A0A2C" transform="translate(117,298)"/>
<path d="M0 0 C0.58007812 0.13277344 1.16015625 0.26554688 1.7578125 0.40234375 C6.15770982 1.39704001 10.53894158 2.31368332 15 3 C15 3.66 15 4.32 15 5 C15.66 5 16.32 5 17 5 C17 5.99 17 6.98 17 8 C13.65626525 7.44271087 10.96687001 6.64826111 8 5 C8 4.34 8 3.68 8 3 C5.69 3 3.38 3 1 3 C0.67 2.01 0.34 1.02 0 0 Z " fill="#AB0A2F" transform="translate(204,214)"/>
<path d="M0 0 C-2.45518735 1.50537035 -4.9138452 3.00444426 -7.375 4.5 C-8.07367188 4.92925781 -8.77234375 5.35851562 -9.4921875 5.80078125 C-14.7734375 9 -14.7734375 9 -17 9 C-16.67 8.01 -16.34 7.02 -16 6 C-15.01 6 -14.02 6 -13 6 C-13 5.01 -13 4.02 -13 3 C-11.35 3 -9.7 3 -8 3 C-7.67 2.01 -7.34 1.02 -7 0 C-2.25 -1.125 -2.25 -1.125 0 0 Z " fill="#A00B30" transform="translate(389,199)"/>
<path d="M0 0 C2 3 2 3 2 5 C1.34 5 0.68 5 0 5 C-0.2165625 6.7634375 -0.2165625 6.7634375 -0.4375 8.5625 C-0.91410176 12.38212272 -1.44453544 16.19110019 -2 20 C-2.66 20 -3.32 20 -4 20 C-4 21.65 -4 23.3 -4 25 C-4.66 25 -5.32 25 -6 25 C-4.26726504 16.5821032 -2.37704629 8.26065732 0 0 Z " fill="#900E2A" transform="translate(195,358)"/>
<path d="M0 0 C-1.44323469 4.73789165 -3.37226733 8.98858151 -5.625 13.375 C-5.94984375 14.01566406 -6.2746875 14.65632813 -6.609375 15.31640625 C-7.40257407 16.87947501 -8.20077031 18.44000622 -9 20 C-9.33 20 -9.66 20 -10 20 C-10 18.35 -10 16.7 -10 15 C-9.34 15 -8.68 15 -8 15 C-7.896875 14.360625 -7.79375 13.72125 -7.6875 13.0625 C-6.76664826 8.96052405 -5.6694029 4.86598565 -4 1 C-2 0 -2 0 0 0 Z " fill="#9D0F30" transform="translate(229,336)"/>
<path d="M0 0 C1.32 0 2.64 0 4 0 C2.35433477 5.68502535 -0.29032784 10.76681636 -3 16 C-3.33 16 -3.66 16 -4 16 C-4.33 13.69 -4.66 11.38 -5 9 C-4.34 9 -3.68 9 -3 9 C-2.67 8.34 -2.34 7.68 -2 7 C-1.34 7 -0.68 7 0 7 C0 4.69 0 2.38 0 0 Z " fill="#A20B32" transform="translate(233,320)"/>
<path d="M0 0 C2.09749995 2.35968744 2.96905704 3.54616994 3.1875 6.75 C3.125625 7.4925 3.06375 8.235 3 9 C1.02 9.99 -0.96 10.98 -3 12 C-2.49202991 7.6822542 -1.80317221 3.96697886 0 0 Z " fill="#B10B32" transform="translate(393,186)"/>
<path d="M0 0 C0.66 0 1.32 0 2 0 C2 0.99 2 1.98 2 3 C2.66 3 3.32 3 4 3 C8 9.5 8 9.5 8 14 C8.66 14 9.32 14 10 14 C10 15.65 10 17.3 10 19 C7.18586468 15.56242547 5.2574617 11.77957218 3.3125 7.8125 C2.99216797 7.17119141 2.67183594 6.52988281 2.34179688 5.86914062 C0 1.14060834 0 1.14060834 0 0 Z " fill="#970D2E" transform="translate(269,334)"/>
<path d="M0 0 C0.33 1.32 0.66 2.64 1 4 C-7.13253012 8.21686747 -7.13253012 8.21686747 -12 7 C-8.04 4.69 -4.08 2.38 0 0 Z " fill="#A50C30" transform="translate(135,288)"/>
<path d="M0 0 C0.33 0.66 0.66 1.32 1 2 C1.99 2.33 2.98 2.66 4 3 C2.8553125 4.0828125 2.8553125 4.0828125 1.6875 5.1875 C-0.71854872 7.70545796 -2.26172335 10.02009717 -4 13 C-4.99 13.495 -4.99 13.495 -6 14 C-4.45941767 8.98491285 -2.97068161 4.3852919 0 0 Z " fill="#9D0B2E" transform="translate(257,189)"/>
<path d="M0 0 C0.33 0 0.66 0 1 0 C1 2.64 1 5.28 1 8 C0.34 8 -0.32 8 -1 8 C-1 8.66 -1 9.32 -1 10 C-3.1980747 11.33454536 -4.52613603 12.02787435 -7.125 11.875 C-9.575137 10.73160273 -10.04432617 9.46882406 -11 7 C-10.34 7 -9.68 7 -9 7 C-9 7.66 -9 8.32 -9 9 C-5.97580475 8.41196203 -2.98241547 7.77321882 0 7 C0 4.69 0 2.38 0 0 Z " fill="#920D2E" transform="translate(311,386)"/>
<path d="M0 0 C0.33 0 0.66 0 1 0 C1.33 3.63 1.66 7.26 2 11 C3.32 11.33 4.64 11.66 6 12 C6 12.66 6 13.32 6 14 C6.66 14.33 7.32 14.66 8 15 C4.33118845 14.29445932 1.29549466 12.72264494 -2 11 C-1.40049704 7.31733897 -0.75241109 3.65456815 0 0 Z " fill="#890D27" transform="translate(188,383)"/>
<path d="M0 0 C2 1 2 1 2.81640625 2.75 C4.62503425 8.20429176 5.54520109 13.26953375 6 19 C3.4127495 16.4127495 2.93443913 14.11722529 1.875 10.625 C1.52179688 9.48289063 1.16859375 8.34078125 0.8046875 7.1640625 C0 4 0 4 0 0 Z " fill="#980D30" transform="translate(199,152)"/>
<path d="M0 0 C12.66970387 3.07517084 12.66970387 3.07517084 18 5 C18 5.33 18 5.66 18 6 C16.22844346 5.88570603 14.45773771 5.75816963 12.6875 5.625 C11.70136719 5.55539063 10.71523437 5.48578125 9.69921875 5.4140625 C7 5 7 5 4 3 C2.68 3 1.36 3 0 3 C0 2.01 0 1.02 0 0 Z " fill="#830C26" transform="translate(160,200)"/>
<path d="M0 0 C2.475 0.99 2.475 0.99 5 2 C5 2.66 5 3.32 5 4 C5.556875 4.103125 6.11375 4.20625 6.6875 4.3125 C9.44176578 5.13133577 11.58727657 6.45853781 14 8 C12.68 8.33 11.36 8.66 10 9 C9.67 8.34 9.34 7.68 9 7 C8.01 7 7.02 7 6 7 C6 6.34 6 5.68 6 5 C5.01 5 4.02 5 3 5 C3 4.34 3 3.68 3 3 C2.01 3 1.02 3 0 3 C0 2.01 0 1.02 0 0 Z " fill="#960D2D" transform="translate(333,270)"/>
<path d="M0 0 C1.32 0 2.64 0 4 0 C4 1.32 4 2.64 4 4 C-0.82360189 4.19294408 -4.49646738 3.75747614 -9 2 C-9 1.67 -9 1.34 -9 1 C-7.700625 1.020625 -6.40125 1.04125 -5.0625 1.0625 C-3.70834367 1.08399454 -2.35243917 1.07148199 -1 1 C-0.67 0.67 -0.34 0.34 0 0 Z " fill="#AB0B33" transform="translate(389,312)"/>
<path d="M0 0 C0.99 0.33 1.98 0.66 3 1 C2.67 1.66 2.34 2.32 2 3 C2.99 3 3.98 3 5 3 C5 4.98 5 6.96 5 9 C5.66 9 6.32 9 7 9 C7.33 10.98 7.66 12.96 8 15 C5.31874582 12.61753661 3.88576541 10.1454496 2.3125 6.9375 C1.87550781 6.05964844 1.43851563 5.18179687 0.98828125 4.27734375 C0 2 0 2 0 0 Z " fill="#900B2C" transform="translate(254,304)"/>
<path d="M0 0 C-2.77753377 1.44558008 -5.54539908 2.65035413 -8.5 3.6875 C-9.2528125 3.95949219 -10.005625 4.23148437 -10.78125 4.51171875 C-13.23597493 5.0519311 -14.64423338 4.79774824 -17 4 C-15.35 3.67 -13.7 3.34 -12 3 C-12 2.34 -12 1.68 -12 1 C-7.93631321 0.22596442 -4.13574827 -0.0984702 0 0 Z " fill="#970E2F" transform="translate(199,288)"/>
<path d="M0 0 C2.31 0.33 4.62 0.66 7 1 C7 1.66 7 2.32 7 3 C8.32 3 9.64 3 11 3 C12.75 5.5 12.75 5.5 14 8 C8.76481294 6.56032356 4.36973991 4.18303389 0 1 C0 0.67 0 0.34 0 0 Z " fill="#9F0C31" transform="translate(157,224)"/>
<path d="M0 0 C1.65 0 3.3 0 5 0 C3 1.5 3 1.5 1 3 C0.01 3.804375 0.01 3.804375 -1 4.625 C-3.03734305 6.02567335 -4.58566636 6.56886899 -7 7 C-6.67 5.35 -6.34 3.7 -6 2 C-4.02 2 -2.04 2 0 2 C0 1.34 0 0.68 0 0 Z " fill="#9B0C2B" transform="translate(302,245)"/>
<path d="M0 0 C2.74415095 2.26118038 3.89410286 3.47594492 4.609375 7.015625 C4.65578125 8.08296875 4.7021875 9.1503125 4.75 10.25 C4.80671875 11.32765625 4.8634375 12.4053125 4.921875 13.515625 C4.94765625 14.33546875 4.9734375 15.1553125 5 16 C2.57395248 13.57395248 2.24156481 11.85807224 1.375 8.5625 C1.11460937 7.59441406 0.85421875 6.62632812 0.5859375 5.62890625 C0 3 0 3 0 0 Z " fill="#900D2E" transform="translate(213,201)"/>
<path d="M0 0 C2.93814003 1.46907001 3.3286226 3.59447806 4.625 6.5625 C5.07101563 7.57441406 5.51703125 8.58632812 5.9765625 9.62890625 C6.31429687 10.41136719 6.65203125 11.19382813 7 12 C6.01 12.495 6.01 12.495 5 13 C4.34 12.67 3.68 12.34 3 12 C3 10.35 3 8.7 3 7 C2.34 7 1.68 7 1 7 C0.67 4.69 0.34 2.38 0 0 Z " fill="#A50B30" transform="translate(224,155)"/>
<path d="M0 0 C1.65 0 3.3 0 5 0 C3.77472971 4.05281712 2.30119506 7.44360764 0 11 C-0.66 9.68 -1.32 8.36 -2 7 C-1.01 7 -0.02 7 1 7 C1.15149298 3.37114676 1.15149298 3.37114676 0 0 Z " fill="#980B2B" transform="translate(243,300)"/>
<path d="M0 0 C0.33 0 0.66 0 1 0 C1.22577402 5.4185766 0.46670113 9.77487721 -1 15 C-1.66 14.34 -2.32 13.68 -3 13 C-2.6875 10.8125 -2.6875 10.8125 -2 8 C-1.835 6.7625 -1.67 5.525 -1.5 4.25 C-1 1 -1 1 0 0 Z " fill="#A20D32" transform="translate(286,197)"/>
<path d="M0 0 C0 0.66 0 1.32 0 2 C-0.66 2 -1.32 2 -2 2 C-2.66 3.32 -3.32 4.64 -4 6 C-6.31 6 -8.62 6 -11 6 C-3.8 0 -3.8 0 0 0 Z " fill="#A40C32" transform="translate(195,255)"/>
<path d="M0 0 C0.33 0.66 0.66 1.32 1 2 C0.67 2.66 0.34 3.32 0 4 C1.36125 3.4740625 1.36125 3.4740625 2.75 2.9375 C5.87758436 2.03531221 7.05208081 1.86618493 10 3 C8.35 3.33 6.7 3.66 5 4 C5 4.66 5 5.32 5 6 C3.02 6 1.04 6 -1 6 C-1.33 4.35 -1.66 2.7 -2 1 C-1.34 0.67 -0.68 0.34 0 0 Z " fill="#8C0B28" transform="translate(283,213)"/>
<path d="M0 0 C0.66 0 1.32 0 2 0 C2.33 1.98 2.66 3.96 3 6 C2.01 6 1.02 6 0 6 C-0.66 7.32 -1.32 8.64 -2 10 C-2.66 10 -3.32 10 -4 10 C-2.8905928 6.51329166 -1.73662334 3.22515763 0 0 Z " fill="#AB0C34" transform="translate(283,137)"/>
<path d="M0 0 C2.55803184 3.83704776 4.34505724 7.75712791 3.625 12.4375 C3.41875 12.953125 3.2125 13.46875 3 14 C-0.53286034 9.43672206 -0.32374517 5.50366792 0 0 Z " fill="#7E0A28" transform="translate(283,287)"/>
<path d="M0 0 C0.66 0 1.32 0 2 0 C6.59225513 8.261959 6.59225513 8.261959 6 13 C2.57068046 9.2440786 1.43570917 4.76533255 0 0 Z " fill="#950C2F" transform="translate(263,321)"/>
<path d="M0 0 C2.55803184 3.83704776 4.34505724 7.75712791 3.625 12.4375 C3.41875 12.953125 3.2125 13.46875 3 14 C-0.00559652 8.99067246 -0.29341888 5.67276511 0 0 Z " fill="#8E0C29" transform="translate(287,301)"/>
<path d="M0 0 C1.98 0.66 3.96 1.32 6 2 C5.01 3.485 5.01 3.485 4 5 C0.375 5.6875 0.375 5.6875 -3 6 C-2 4 -2 4 1 2 C0.67 1.34 0.34 0.68 0 0 Z M6 0 C6.66 0.66 7.32 1.32 8 2 C7.34 2 6.68 2 6 2 C6 1.34 6 0.68 6 0 Z " fill="#94092A" transform="translate(200,248)"/>
<path d="M0 0 C1.32 0.33 2.64 0.66 4 1 C2.54462432 1.83848804 1.08559627 2.67063934 -0.375 3.5 C-1.59316406 4.19609375 -1.59316406 4.19609375 -2.8359375 4.90625 C-5 6 -5 6 -7 6 C-7 5.01 -7 4.02 -7 3 C-3.535 2.505 -3.535 2.505 0 2 C0 1.34 0 0.68 0 0 Z " fill="#980B2F" transform="translate(324,233)"/>
<path d="M0 0 C0.66 0 1.32 0 2 0 C1.38461538 6.52307692 1.38461538 6.52307692 -0.5625 8.9375 C-1.036875 9.288125 -1.51125 9.63875 -2 10 C-2.08857895 6.81115797 -1.98002972 4.04898134 -1 1 C-0.67 0.67 -0.34 0.34 0 0 Z " fill="#AC0C30" transform="translate(211,364)"/>
<path d="M0 0 C0.99 0 1.98 0 3 0 C3 1.32 3 2.64 3 4 C3.66 4.33 4.32 4.66 5 5 C4.01 5.99 3.02 6.98 2 8 C1 7 1 7 0.9375 4.4375 C0.958125 3.633125 0.97875 2.82875 1 2 C0.34 1.67 -0.32 1.34 -1 1 C-0.67 0.67 -0.34 0.34 0 0 Z " fill="#A90A2F" transform="translate(216,282)"/>
<path d="M0 0 C0 0.66 0 1.32 0 2 C-1.75 3.5078125 -1.75 3.5078125 -4 5.125 C-4.7425 5.66382813 -5.485 6.20265625 -6.25 6.7578125 C-6.8275 7.16773438 -7.405 7.57765625 -8 8 C-7.40137646 4.79837298 -7.08735442 4.08063485 -4.5625 1.75 C-2 0 -2 0 0 0 Z " fill="#AF0C35" transform="translate(172,268)"/>
<path d="M0 0 C1.9375 0.5 1.9375 0.5 4 2 C4.68790422 4.69658452 4.81946464 7.2017019 5 10 C2.35534962 6.8745041 1.15585285 3.91211733 0 0 Z " fill="#970B2C" transform="translate(279,353)"/>
<path d="M0 0 C1 2 1 2 0.25 5.5625 C-0.1625 6.696875 -0.575 7.83125 -1 9 C-1.99 9.33 -2.98 9.66 -4 10 C-3.52449439 8.51965236 -3.04448784 7.04074979 -2.5625 5.5625 C-2.29566406 4.73878906 -2.02882813 3.91507813 -1.75390625 3.06640625 C-1 1 -1 1 0 0 Z " fill="#9C0B32" transform="translate(267,169)"/>
<path d="M0 0 C0.66 0.33 1.32 0.66 2 1 C0.79157144 5.43090471 -0.51668565 7.98112756 -4 11 C-3.21681311 7.08406554 -1.60820142 3.63593365 0 0 Z " fill="#960B27" transform="translate(272,158)"/>
<path d="M0 0 C0.66 0 1.32 0 2 0 C1.5205537 4.21912747 0.83374881 6.79663178 -2 10 C-2 8.02 -2 6.04 -2 4 C-1.34 4 -0.68 4 0 4 C0 2.68 0 1.36 0 0 Z " fill="#A20E33" transform="translate(301,144)"/>
<path d="M0 0 C1.32 0 2.64 0 4 0 C2.25 5.75 2.25 5.75 0 8 C0 5.36 0 2.72 0 0 Z " fill="#AE0E37" transform="translate(233,320)"/>
<path d="M0 0 C-2.3129482 2.3129482 -3.47904875 2.49580975 -6.625 3.125 C-7.44226563 3.29257812 -8.25953125 3.46015625 -9.1015625 3.6328125 C-10.04128906 3.81457031 -10.04128906 3.81457031 -11 4 C-9 1 -9 1 -7.1875 0.3125 C-4.76407022 -0.03370425 -2.44491162 -0.06791421 0 0 Z " fill="#870B28" transform="translate(158,301)"/>
<path d="M0 0 C-2.95183101 2.95183101 -5.95511947 3.08663988 -10 4 C-10 3.34 -10 2.68 -10 2 C-6.3558226 -0.4294516 -4.28758728 -0.16179575 0 0 Z " fill="#9B0C30" transform="translate(176,295)"/>
<path d="M0 0 C1.65 0 3.3 0 5 0 C5 0.66 5 1.32 5 2 C3.03533587 3.06775224 1.03144641 4.06553465 -1 5 C-1.66 4.67 -2.32 4.34 -3 4 C-2.67 3.34 -2.34 2.68 -2 2 C-1.34 2 -0.68 2 0 2 C0 1.34 0 0.68 0 0 Z " fill="#960B2B" transform="translate(354,215)"/>
<path d="M0 0 C0.99 0.33 1.98 0.66 3 1 C2.67 2.32 2.34 3.64 2 5 C0.68 5.33 -0.64 5.66 -2 6 C-2 5.34 -2 4.68 -2 4 C-1.34 4 -0.68 4 0 4 C-0.33 3.01 -0.66 2.02 -1 1 C-0.67 0.67 -0.34 0.34 0 0 Z " fill="#B2103A" transform="translate(196,391)"/>
<path d="M0 0 C0.33 0 0.66 0 1 0 C1 1.65 1 3.3 1 5 C0.34 5 -0.32 5 -1 5 C-1 6.65 -1 8.3 -1 10 C-1.66 10 -2.32 10 -3 10 C-2.69201674 8.51988629 -2.378482 7.04092675 -2.0625 5.5625 C-1.88847656 4.73878906 -1.71445313 3.91507812 -1.53515625 3.06640625 C-1 1 -1 1 0 0 Z " fill="#A90D35" transform="translate(192,373)"/>
<path d="M0 0 C3.77545388 1.09068668 6.47043472 1.9083091 9 5 C7.35 5 5.7 5 4 5 C4 4.34 4 3.68 4 3 C2.68 2.67 1.36 2.34 0 2 C0 1.34 0 0.68 0 0 Z " fill="#A10D30" transform="translate(299,252)"/>
<path d="M0 0 C-5.75 4 -5.75 4 -8 4 C-7.67 2.68 -7.34 1.36 -7 0 C-2.25 -1.125 -2.25 -1.125 0 0 Z " fill="#940B2B" transform="translate(389,199)"/>
<path d="M0 0 C0.33 0 0.66 0 1 0 C1 1.98 1 3.96 1 6 C0.01 6.495 0.01 6.495 -1 7 C-1.33 7.99 -1.66 8.98 -2 10 C-2.66 10 -3.32 10 -4 10 C-2.8905928 6.51329166 -1.73662334 3.22515763 0 0 Z " fill="#9F1033" transform="translate(278,147)"/>
<path d="M0 0 C0.66 0.99 1.32 1.98 2 3 C1 6 1 6 -2 8 C-1.125 1.125 -1.125 1.125 0 0 Z " fill="#B91039" transform="translate(198,353)"/>
<path d="M0 0 C2.625 0.375 2.625 0.375 5 1 C0.25 5 0.25 5 -2 5 C-2 2 -2 2 0 0 Z " fill="#930B2C" transform="translate(346,219)"/>
<path d="M0 0 C-0.33 0.99 -0.66 1.98 -1 3 C-3.64 3.33 -6.28 3.66 -9 4 C-9 3.34 -9 2.68 -9 2 C-2.25 0 -2.25 0 0 0 Z " fill="#CD0D3E" transform="translate(347,199)"/>
<path d="M0 0 C0.86625 0.3403125 0.86625 0.3403125 1.75 0.6875 C1.75 1.6775 1.75 2.6675 1.75 3.6875 C0.76 3.3575 -0.23 3.0275 -1.25 2.6875 C-2.91621616 2.64875079 -4.58394172 2.6424714 -6.25 2.6875 C-2.80384615 -0.38942308 -2.80384615 -0.38942308 0 0 Z " fill="#971031" transform="translate(196.25,102.3125)"/>
</svg>
